<svg xmlns="http://www.w3.org/2000/svg" xmlns:xlink="http://www.w3.org/1999/xlink" version="1.1" x="0px" y="0px" viewBox="0 0 64 80" enable-background="new 0 0 64 64" xml:space="preserve"><path d="M32.001,0C14.356,0,0,14.356,0,32.002C0,49.646,14.356,64,32.001,64C49.646,64,64,49.646,64,32.002  C64,14.356,49.646,0,32.001,0z M32.001,61C16.01,61,3,47.991,3,32.002C3,16.01,16.01,3,32.001,3C47.991,3,61,16.01,61,32.002  C61,47.991,47.991,61,32.001,61z"/><path d="M50.383,20.521L32.75,10.34c-0.464-0.269-1.036-0.269-1.5,0l-17.632,10.18c-0.464,0.268-0.75,0.763-0.75,1.299v20.362  c0,0.536,0.286,1.031,0.75,1.299L31.25,53.66c0.232,0.134,0.491,0.201,0.75,0.201s0.518-0.067,0.75-0.201l17.633-10.18  c0.464-0.268,0.75-0.763,0.75-1.299V21.819C51.133,21.283,50.847,20.788,50.383,20.521z M48.133,41.315L32,50.629l-16.132-9.313  v-18.63L32,13.371l16.133,9.314V41.315z"/><path d="M30.5,19.53v4.333h-1.952c-2.081,0-3.774,1.695-3.774,3.778v2.085c0,2.081,1.693,3.774,3.774,3.774h0.835H30.5v3.635h-2.729  c-0.829,0-1.5,0.672-1.5,1.5s0.671,1.5,1.5,1.5H30.5v4.332c0,0.828,0.671,1.5,1.5,1.5s1.5-0.672,1.5-1.5v-4.332h1.952  c2.081,0,3.774-1.693,3.774-3.774v-2.086c0-2.081-1.693-3.774-3.774-3.774h-0.836H33.5v-3.638h2.729c0.828,0,1.5-0.671,1.5-1.5  s-0.672-1.5-1.5-1.5H33.5V19.53c0-0.829-0.671-1.5-1.5-1.5S30.5,18.701,30.5,19.53z M34.616,33.5h0.836  c0.427,0,0.774,0.348,0.774,0.774v2.086c0,0.427-0.348,0.774-0.774,0.774H33.5V33.5H34.616z M30.5,30.5h-1.117h-0.835  c-0.427,0-0.774-0.347-0.774-0.774V27.64c0-0.429,0.347-0.778,0.774-0.778H30.5V30.5z"/><text x="0" y="79" fill="#000000" font-size="5px" font-weight="bold" font-family="'Helvetica Neue', Helvetica, Arial-Unicode, Arial, Sans-serif">Created by Mohamed Mb</text><text x="0" y="84" fill="#000000" font-size="5px" font-weight="bold" font-family="'Helvetica Neue', Helvetica, Arial-Unicode, Arial, Sans-serif">from the Noun Project</text></svg>